<?xml version="1.0" standalone="no"?>
<!DOCTYPE svg PUBLIC "-//W3C//DTD SVG 20010904//EN"
 "http://www.w3.org/TR/2001/REC-SVG-20010904/DTD/svg10.dtd">
<svg version="1.0" xmlns="http://www.w3.org/2000/svg"
 width="204.000000pt" height="214.000000pt" viewBox="0 0 204.000000 214.000000"
 preserveAspectRatio="xMidYMid meet">
<metadata>
Created by potrace 1.16, written by Peter Selinger 2001-2019
</metadata>
<g transform="translate(0.000000,214.000000) scale(0.100000,-0.100000)"
fill="#000000" stroke="none">
<path d="M1170 1899 c-109 -67 -120 -210 -22 -286 60 -46 110 -51 175 -19 60
30 82 56 99 120 10 40 10 51 -8 93 -29 69 -89 113 -157 113 -35 0 -63 -7 -87
-21z"/>
<path d="M975 1573 c-39 -10 -103 -63 -242 -200 -121 -121 -143 -147 -158
-192 -15 -46 -16 -59 -5 -92 18 -52 56 -85 190 -164 63 -37 123 -74 133 -83
16 -15 18 -34 16 -202 -2 -185 -2 -185 86 -185 87 0 87 0 85 212 -1 246 -2
252 -84 337 -35 36 -53 62 -48 70 4 7 45 45 90 86 84 73 84 73 170 -12 48 -47
95 -88 104 -91 9 -3 97 -7 195 -8 178 -2 178 -2 178 87 0 89 0 89 -120 86 -66
-2 -133 1 -150 6 -21 6 -58 42 -126 125 -178 219 -215 245 -314 220z"/>
<path d="M350 858 c-78 -30 -169 -123 -199 -203 -67 -177 30 -380 211 -443 80
-28 146 -28 228 0 88 31 177 117 208 201 63 169 -15 357 -183 437 -80 38 -179
41 -265 8z m220 -142 c125 -66 145 -235 40 -330 -81 -73 -189 -73 -270 0 -51
46 -75 108 -67 174 17 143 170 223 297 156z"/>
<path d="M1373 851 c-217 -103 -272 -370 -112 -546 30 -32 73 -65 107 -82 49
-24 69 -28 142 -28 71 0 94 4 141 26 167 79 245 255 188 426 -29 90 -115 179
-202 211 -87 33 -184 30 -264 -7z m223 -127 c48 -23 101 -86 114 -135 42 -156
-116 -302 -264 -245 -47 18 -110 79 -126 122 -24 63 -4 162 43 213 52 56 163
78 233 45z"/>
</g>
</svg>
