<svg version="1.1" id="Layer_1" xmlns="http://www.w3.org/2000/svg" xmlns:xlink="http://www.w3.org/1999/xlink" x="0px" y="0px"
	 width="100%" viewBox="0 0 544 544" enable-background="new 0 0 544 544" xml:space="preserve">
<path fill="#000000" opacity="1.000000" stroke="none" 
	d="
M152.673721,351.837677 
	C133.753845,347.422302 121.413994,336.301025 116.459602,317.950684 
	C111.391235,299.178162 116.669029,282.786530 129.823303,268.788086 
	C133.139557,265.258972 136.738174,261.765961 141.221252,259.964783 
	C147.238586,257.547211 149.067673,253.037674 149.638260,247.214401 
	C154.604279,196.532776 191.307877,153.772217 240.987442,142.542542 
	C290.568359,131.335190 333.348663,144.033859 367.172211,182.727158 
	C382.910126,200.730927 391.431702,222.314606 394.272888,246.025009 
	C395.029236,252.336960 396.655640,256.780487 403.335358,259.793365 
	C421.636169,268.047882 433.065216,288.248169 431.133057,309.358582 
	C429.341949,328.927582 418.725983,342.643463 400.175629,349.885620 
	C392.528381,352.871155 384.465271,352.803680 376.525818,352.818268 
	C307.530487,352.944916 238.534851,352.909302 169.539368,352.847260 
	C164.055084,352.842316 158.571274,352.277527 152.673721,351.837677 
M416.695984,305.445312 
	C416.203186,289.135193 408.237061,277.705963 393.540558,271.150330 
	C385.549744,267.585907 381.239410,262.032837 380.598724,253.288406 
	C380.236267,248.341507 379.498047,243.376297 378.412323,238.535202 
	C364.954437,178.527802 307.581726,143.205475 248.511261,155.827744 
	C201.125687,165.953140 168.763168,202.749481 163.662704,251.168884 
	C162.611832,261.145050 158.249527,267.193878 149.803757,271.852631 
	C131.000946,282.224365 123.885902,303.989807 133.325806,321.264130 
	C140.037094,333.545258 151.013824,338.055695 164.540512,338.041351 
	C236.678024,337.964874 308.815643,337.992432 380.953217,337.972168 
	C382.783600,337.971649 384.617767,337.887878 386.443665,337.754089 
	C403.464447,336.506897 415.955017,323.524048 416.695984,305.445312 
z"/>
<path fill="#000000" opacity="1.000000" stroke="none" 
	d="
M233.999908,416.370972 
	C200.842239,416.370422 168.184586,416.378784 135.526932,416.363068 
	C124.742058,416.357849 117.964073,411.890961 113.974434,401.861816 
	C110.775864,393.821289 107.637062,385.740173 104.952126,377.520203 
	C103.841858,374.121063 102.139389,373.027710 98.843559,373.212982 
	C96.192062,373.362030 93.487595,373.376617 90.863564,373.025482 
	C86.463860,372.436707 83.604729,369.059937 84.135292,365.196625 
	C84.714035,360.982544 87.191887,358.681183 91.568817,358.665497 
	C92.901749,358.660706 94.234688,358.650391 95.567619,358.650391 
	C213.701691,358.650024 331.835754,358.650391 449.969818,358.651428 
	C451.469391,358.651459 452.971039,358.611755 454.468109,358.675537 
	C459.076508,358.871826 462.032074,361.498016 462.187836,365.481964 
	C462.337372,369.306030 459.412659,372.615143 455.054260,373.103943 
	C452.253754,373.417969 449.392334,373.358521 446.567688,373.240295 
	C443.634003,373.117462 442.170471,374.230469 441.192352,377.149384 
	C438.391632,385.507263 435.315460,393.780212 432.102112,401.990509 
	C428.272461,411.775421 421.434235,416.355255 410.950897,416.359070 
	C352.133911,416.380493 293.316895,416.370056 233.999908,416.370972 
M412.488129,373.262512 
	C314.872528,373.262512 217.256927,373.262512 118.652557,373.262512 
	C121.488365,380.778809 123.746834,386.828796 126.052429,392.860718 
	C129.409485,401.643616 129.423950,401.649414 138.641098,401.649658 
	C228.260681,401.651978 317.880280,401.650421 407.499847,401.648346 
	C408.998962,401.648315 410.498047,401.625427 411.997162,401.618774 
	C414.153900,401.609192 416.139252,400.807129 417.101196,398.978210 
	C421.266907,391.057922 424.107025,382.643158 426.456909,373.797546 
	C421.765381,372.840363 417.604034,373.439148 412.488129,373.262512 
z"/>
<path fill="#000000" opacity="1.000000" stroke="none" 
	d="
M334.488770,274.284271 
	C312.763702,273.592590 293.392883,279.539551 275.362122,290.657166 
	C262.373535,298.665833 248.478058,304.628632 233.210022,306.643280 
	C218.046967,308.644104 203.032440,308.027557 188.467834,302.786072 
	C183.649872,301.052185 181.608566,297.301849 183.010071,293.101105 
	C184.256989,289.363708 187.979095,287.626740 192.985428,289.025940 
	C202.169434,291.592773 211.437592,293.253326 221.008179,292.900604 
	C236.823441,292.317749 251.399170,287.539398 264.917572,279.541199 
	C279.330109,271.013947 294.231842,263.841278 310.958313,261.169769 
	C318.201874,260.012787 325.483093,259.184113 332.812531,259.868256 
	C336.450165,260.207733 339.753693,261.512451 340.256805,265.883636 
	C340.736481,270.051147 339.213684,273.048126 334.488770,274.284271 
z"/>
</svg>