<svg version="1.1" id="Layer_1" xmlns="http://www.w3.org/2000/svg" xmlns:xlink="http://www.w3.org/1999/xlink" x="0px" y="0px"
	 width="100%" viewBox="0 0 1024 1024" enable-background="new 0 0 1024 1024" xml:space="preserve">
<path fill="#000000" opacity="1.000000" stroke="none" 
	d="
M233.666687,822.395752 
	C227.567429,818.866028 221.945694,815.238281 217.147781,810.578308 
	C214.278793,807.791809 212.269608,808.295288 209.629547,810.852112 
	C200.177216,820.006592 190.539215,828.968994 181.015823,838.050659 
	C175.170715,843.624817 168.050369,844.311829 163.201904,839.656494 
	C158.661041,835.296631 158.557343,827.541443 163.802734,822.033142 
	C172.408966,812.995728 181.347855,804.260559 190.419601,795.686951 
	C195.262115,791.110352 195.331879,791.436829 191.558823,786.322937 
	C177.834564,767.721191 167.173431,747.527954 164.220459,724.367310 
	C161.110916,699.978760 172.314835,681.074402 195.731415,677.216675 
	C207.514862,675.275452 219.311829,677.197632 230.755371,680.775391 
	C240.350357,683.775269 249.315933,688.113037 257.932770,693.235229 
	C259.189117,693.982056 260.540192,694.569458 262.172638,695.395203 
	C262.819702,692.742920 261.257935,691.306091 260.358948,689.663940 
	C253.937881,677.934814 248.381653,665.945374 246.240601,652.516357 
	C242.770340,630.750183 259.326874,609.280151 281.233063,606.517578 
	C300.672791,604.066162 318.125000,609.491211 335.121460,617.841858 
	C336.314697,618.428162 337.451691,619.130798 338.654724,619.694092 
	C339.056305,619.882141 339.582550,619.804016 340.306610,619.871277 
	C340.207916,616.147705 338.440613,613.065186 337.167755,609.923584 
	C326.157440,582.748596 326.012177,555.429016 335.931213,527.983643 
	C337.224274,524.405762 338.951843,520.897034 341.023956,517.711304 
	C343.539856,513.843262 343.697296,510.418274 341.971039,506.050568 
	C330.858185,477.932770 332.353363,450.055115 344.297455,422.521759 
	C345.013794,420.870453 345.703949,419.207794 346.823914,416.564850 
	C339.174744,419.486694 332.436279,422.127533 325.650116,424.639557 
	C309.078247,430.774078 292.665527,430.683807 276.738892,422.633606 
	C262.112152,415.240387 253.157516,396.548828 255.197678,380.241119 
	C257.161621,364.542755 262.354126,350.191254 270.779541,336.902954 
	C271.847168,335.219147 272.763245,333.436829 273.696442,331.672058 
	C273.918610,331.251923 273.927094,330.718781 274.120819,329.845428 
	C271.864746,329.774261 270.384125,331.145844 268.763672,332.050415 
	C250.227386,342.398438 230.913712,350.293304 209.231216,350.150391 
	C203.261795,350.111084 197.258499,349.519684 191.541183,347.424408 
	C173.099091,340.665833 165.001770,327.328339 166.244751,306.389984 
	C167.666748,282.436035 178.356659,262.375305 191.968246,243.474976 
	C196.795837,236.771652 196.693054,237.022049 190.906570,231.591644 
	C181.802628,223.047974 172.754074,214.422974 164.097748,205.432205 
	C157.845322,198.938248 158.449158,190.864777 164.773056,186.271851 
	C169.414734,182.900696 174.000580,183.158478 179.427612,187.309967 
	C189.383575,194.925919 197.783646,204.254822 207.072708,212.609192 
	C215.373459,220.074692 215.161179,219.988144 224.214600,212.975861 
	C243.798721,197.807114 265.833923,188.663483 290.707123,187.048813 
	C315.732178,185.424286 333.873596,204.060150 333.552185,230.095810 
	C333.295197,250.914505 325.203918,268.895325 314.150421,287.617279 
	C317.766510,285.305359 320.232849,283.656494 322.770691,282.126129 
	C325.338043,280.578003 327.957520,279.113190 330.586304,277.670502 
	C348.243652,267.979980 366.977478,261.814423 387.262390,261.921722 
	C418.927399,262.089203 430.997711,289.227783 428.668030,310.858948 
	C427.208984,324.406372 421.756927,336.498230 416.211060,348.624512 
	C415.120453,351.009247 414.017853,353.388458 412.546143,356.583466 
	C422.149445,353.884888 430.870270,351.394653 439.966217,350.534515 
	C463.866272,348.274445 487.217743,350.268555 509.665253,359.258362 
	C513.033752,360.607361 515.774353,360.520477 519.129578,359.117432 
	C546.356445,347.731903 574.322571,346.408936 602.827942,353.481018 
	C607.209167,354.567993 611.029846,357.016083 615.680847,358.919342 
	C615.412170,354.743652 613.449158,351.766235 611.763245,348.673676 
	C602.658630,331.973145 596.952515,314.574188 599.484131,295.110321 
	C601.759766,277.614807 616.724915,263.939758 634.615356,262.711975 
	C656.636047,261.200775 676.274841,268.317322 695.297241,278.132324 
	C700.158997,280.640839 704.831055,283.516937 709.939941,286.423096 
	C710.403870,284.162964 709.105835,282.781097 708.325989,281.307556 
	C701.612732,268.622803 695.233398,255.808411 692.881470,241.441849 
	C690.849243,229.027893 690.772949,216.894913 697.861389,205.714355 
	C705.121399,194.263214 715.699097,188.513855 728.992371,187.739944 
	C759.436218,185.967560 784.841858,197.972992 807.354919,217.223358 
	C810.579956,219.981003 812.124268,219.279510 814.686401,216.842941 
	C824.585632,207.428696 834.607300,198.141663 844.671936,188.903763 
	C848.705078,185.201889 852.971313,182.173904 859.009521,184.847519 
	C867.450500,188.585083 869.805786,198.383972 863.205811,204.889587 
	C853.242920,214.710205 843.582153,224.888260 832.676331,233.687698 
	C829.379639,236.347733 829.245850,238.035782 831.948608,241.205154 
	C843.763916,255.060547 852.501160,270.686066 857.733154,288.173492 
	C860.691772,298.062378 860.895203,308.114929 859.579285,318.339325 
	C857.109497,337.529785 837.623779,349.410583 822.288696,350.187439 
	C800.907288,351.270508 781.565002,344.872345 763.054932,334.976868 
	C759.558350,333.107574 756.332153,330.657745 751.569336,329.461212 
	C752.667419,333.140564 754.671021,335.716522 756.388916,338.392273 
	C764.449829,350.947723 769.377991,364.618713 770.952148,379.449829 
	C773.613525,404.524750 754.768921,425.917511 728.959656,428.411713 
	C714.575500,429.801819 701.677368,425.495392 688.654968,420.854645 
	C685.425232,419.703674 682.312805,418.223511 678.144043,416.473969 
	C679.936279,421.906860 681.393494,426.271729 682.816467,430.647736 
	C687.735535,445.775024 691.853760,461.022186 689.257446,477.182648 
	C687.795227,486.283997 685.634705,495.199310 680.269531,502.896881 
	C677.177673,507.332855 677.238708,510.855133 680.770386,515.326050 
	C691.351685,528.721191 693.937561,544.849487 695.241394,561.286194 
	C696.731567,580.071716 692.247559,597.641235 684.467102,614.553955 
	C683.585449,616.470337 682.459595,618.354980 682.680054,621.380188 
	C687.807739,618.799927 692.519348,616.164429 697.439880,614.004944 
	C709.879211,608.545471 722.659973,604.517578 736.515930,604.876404 
	C758.596985,605.448242 778.642639,625.039795 778.640503,647.006348 
	C778.639282,659.515808 774.416931,671.185669 769.105469,682.432861 
	C767.300415,686.255188 764.528320,689.637512 763.450684,693.955750 
	C765.881042,694.648254 767.131409,693.013062 768.629150,692.166443 
	C786.023804,682.334412 804.502686,675.944153 824.646423,676.044800 
	C846.144226,676.152161 862.690491,693.193359 863.363220,714.614746 
	C863.894226,731.524170 858.583740,746.768799 850.880676,761.366882 
	C845.976868,770.660156 840.365601,779.565430 833.293823,787.399414 
	C830.885864,790.067017 831.322510,791.773193 833.750366,794.007812 
	C842.944702,802.470032 852.017395,811.064453 861.127991,819.617554 
	C862.099365,820.529480 863.091187,821.434448 863.954041,822.444702 
	C867.931152,827.100952 868.225769,835.467285 864.603149,839.616394 
	C861.541260,843.123474 853.799377,843.694885 848.775635,840.589294 
	C846.809875,839.374084 844.999939,837.836853 843.326782,836.230042 
	C834.553528,827.804810 825.694458,819.459167 817.196594,810.762085 
	C814.052185,807.544128 811.898315,807.431274 808.540222,810.326477 
	C793.293945,823.470764 775.940125,832.767761 756.445190,837.940002 
	C744.013245,841.238342 731.472839,842.220276 718.983948,838.488647 
	C704.387024,834.127136 695.380066,821.754333 694.624695,806.543762 
	C693.695984,787.841797 697.739868,770.509338 707.550415,754.527283 
	C708.359253,753.209473 709.711487,751.944763 708.965881,749.502625 
	C704.978271,751.818542 701.216492,754.146301 697.326782,756.235901 
	C684.953003,762.883423 672.233521,768.548828 658.126465,770.546875 
	C625.757568,775.131409 602.013794,750.926147 607.377625,718.554932 
	C608.964966,708.974976 612.037231,699.833862 616.688477,691.253418 
	C618.180786,688.500427 619.887085,685.813660 620.534973,682.615845 
	C618.701172,681.378540 617.292847,682.661072 615.880432,683.252075 
	C581.484375,697.646912 547.283081,697.669617 513.321533,681.844849 
	C511.340607,680.921753 509.782410,680.767456 507.719238,681.713806 
	C483.204468,692.958130 457.612000,695.836426 431.104828,691.314209 
	C425.308319,690.325378 419.920807,688.093567 414.489594,685.967896 
	C411.744995,684.893738 409.166351,683.268677 405.265167,683.049744 
	C406.662720,685.940918 407.871033,688.397034 409.042023,690.870789 
	C414.877533,703.198547 418.642059,715.876282 418.318939,729.822937 
	C417.751038,754.334534 399.275116,770.108948 377.354797,771.101318 
	C362.908417,771.755249 349.743530,767.538452 337.149384,760.961670 
	C330.552124,757.516479 323.961731,754.058105 316.589630,751.231873 
	C318.245514,754.192139 319.936707,757.133301 321.551331,760.115784 
	C330.452484,776.558167 334.749817,793.945496 331.215271,812.585693 
	C328.614136,826.303467 313.597839,838.832275 299.800049,840.346191 
	C277.721863,842.768616 258.091797,835.791138 239.198227,825.521423 
	C237.444824,824.568298 235.727997,823.547974 233.666687,822.395752 
M609.594238,499.004059 
	C588.856445,487.775726 570.683228,473.405121 555.707397,455.099365 
	C544.577759,441.495026 536.603943,425.835571 526.999573,411.239410 
	C523.226929,405.505859 520.137817,399.223480 515.304504,394.111908 
	C511.578461,396.433350 509.418671,399.399719 507.057892,402.164124 
	C497.807922,412.995422 491.211395,425.604431 483.630341,437.531769 
	C470.811676,457.699585 454.681488,474.433289 434.444885,487.115326 
	C419.205383,496.665802 403.797150,505.946808 388.489990,515.389893 
	C386.289337,516.747498 383.727417,517.816528 382.850525,520.645325 
	C384.123077,522.920837 386.369812,523.819580 388.365570,524.910522 
	C401.682007,532.189575 414.209137,540.664246 426.757568,549.185181 
	C444.912262,561.513062 460.378296,576.391602 473.067017,594.214600 
	C484.077240,609.679871 495.010315,625.200378 505.928558,640.730835 
	C508.384430,644.224182 510.295837,644.492065 513.071411,640.783264 
	C522.166809,628.629761 530.612305,616.035400 538.395203,603.033997 
	C551.937683,580.411377 568.812256,560.999878 590.876221,546.312073 
	C604.745422,537.079407 619.117432,528.666992 633.377380,520.069580 
	C635.989624,518.494629 638.844910,517.185852 641.079956,514.516174 
	C630.527039,509.322266 620.390564,504.333252 609.594238,499.004059 
M668.406067,581.908752 
	C671.097656,565.244141 669.427979,549.224548 662.037048,534.260437 
	C660.247803,533.980713 659.429565,534.577881 658.625366,535.165833 
	C644.221985,545.696777 628.643250,554.364563 613.461304,563.660950 
	C598.739502,572.675598 585.390198,583.247986 574.722534,597.004272 
	C559.701416,616.374451 549.190979,638.750427 533.958008,657.972961 
	C533.787415,658.188232 533.871033,658.605042 533.705444,660.130005 
	C557.115234,668.643005 580.872864,669.874512 604.361572,660.771118 
	C640.116638,646.913696 659.604675,619.143677 668.406067,581.908752 
M403.141113,314.536865 
	C404.006805,311.423920 404.065857,308.175140 403.510101,305.110382 
	C400.923950,290.849182 397.604248,285.604126 381.933502,286.326874 
	C378.631531,286.479156 375.252075,286.891937 372.088531,287.807404 
	C340.389771,296.980469 314.547791,314.688446 296.254089,342.248352 
	C288.085724,354.554169 281.487915,367.898651 280.572632,383.322021 
	C279.898804,394.676056 284.984589,401.626495 296.126556,403.100952 
	C305.254150,404.308807 314.169220,402.794678 322.612976,399.680450 
	C363.121674,384.740051 389.301514,355.984497 403.141113,314.536865 
M735.938660,351.542145 
	C723.469971,329.069000 705.436890,312.044525 683.431213,299.295258 
	C670.362793,291.723907 656.285278,286.538574 640.756592,286.901398 
	C631.827454,287.110016 627.343079,290.983582 625.029053,299.346771 
	C622.118652,309.865356 624.662048,319.729401 628.957642,328.930206 
	C642.179016,357.249542 660.783081,380.901978 689.823975,394.623962 
	C702.554199,400.639099 715.588135,405.755981 730.207153,402.944824 
	C739.938477,401.073547 745.796082,393.897980 745.741516,383.877563 
	C745.678894,372.387054 741.947815,361.998749 735.938660,351.542145 
M482.142944,654.326172 
	C474.149445,642.450317 466.103058,630.609680 458.174042,618.690857 
	C444.087677,597.516479 427.356995,579.031372 405.331818,565.766174 
	C392.495789,558.035278 379.812134,550.051636 367.029480,542.231445 
	C365.134125,541.071838 363.534515,539.172607 360.584747,539.198242 
	C355.417053,555.616394 353.411011,572.146851 357.347809,588.932068 
	C365.142761,622.167664 384.445679,646.697205 415.626495,660.482239 
	C436.765045,669.827576 459.213745,668.328796 481.321411,662.890137 
	C486.692139,661.568970 486.763214,660.219971 482.142944,654.326172 
M271.358795,651.272461 
	C271.719757,655.271362 272.514343,659.197754 273.983551,662.921204 
	C289.621643,702.552612 318.631165,728.356750 357.884003,743.213318 
	C365.337067,746.034241 373.419250,747.025085 381.453979,744.584534 
	C389.884521,742.023682 394.149536,736.299927 393.657501,727.520569 
	C393.216766,719.656921 391.372498,712.085815 388.313629,704.787659 
	C378.045807,680.289429 360.753754,661.656006 338.959015,647.247803 
	C326.144012,638.776001 312.077301,632.281616 296.474152,630.774780 
	C280.763702,629.257690 271.326508,634.640747 271.358795,651.272461 
M823.750671,324.693207 
	C832.766907,322.045776 836.007385,317.670105 835.955994,308.425995 
	C835.930725,303.889343 835.131531,299.483490 834.046997,295.112946 
	C824.042358,254.797043 783.158508,218.591919 739.989014,211.808105 
	C723.425659,209.205276 713.629395,219.467041 716.805298,235.951416 
	C722.389832,264.937073 738.174194,287.195648 761.764038,304.297302 
	C779.981384,317.504150 799.556946,326.778137 823.750671,324.693207 
M266.009003,811.501953 
	C272.778992,813.892395 279.685486,815.672363 286.833801,816.550903 
	C302.320007,818.454041 310.962158,809.269775 308.480804,793.880005 
	C306.505554,781.629211 301.582336,770.726379 295.052002,760.303223 
	C278.920532,734.555359 256.884155,716.114075 228.289093,705.707336 
	C220.914139,703.023254 213.250214,701.200684 205.351044,701.246948 
	C194.018799,701.313232 188.712036,706.792908 188.000854,718.016968 
	C187.520737,725.594604 189.661591,732.594971 192.338577,739.374817 
	C206.027191,774.043213 231.323898,797.056763 266.009003,811.501953 
M634.835510,712.386353 
	C633.014404,718.666748 631.922607,725.057251 632.338196,731.612061 
	C632.820984,739.226379 638.371704,744.964600 645.921082,745.910767 
	C654.968445,747.044617 663.538269,744.983032 671.705811,741.481140 
	C699.316650,729.642883 722.066528,711.712219 738.794312,686.581604 
	C746.216125,675.431458 752.996582,663.862732 752.853088,649.823547 
	C752.700745,634.912354 746.287903,628.578247 729.802795,629.855286 
	C716.418457,630.892090 704.532043,636.404602 692.943054,642.932983 
	C665.039001,658.652039 645.821289,681.526123 634.835510,712.386353 
M826.116821,756.636230 
	C827.401367,754.301697 828.809753,752.025879 829.949280,749.622559 
	C835.412476,738.100525 839.675171,726.419373 838.231689,713.170898 
	C837.521240,706.649902 834.191101,703.835022 828.516968,702.296509 
	C817.636414,699.346436 807.245911,701.660767 797.284363,705.713135 
	C765.126770,718.794861 741.034546,740.921997 725.355042,771.887817 
	C720.601196,781.276367 717.511719,791.354553 718.125244,802.186279 
	C718.620178,810.924255 721.607727,814.490723 730.065552,816.239014 
	C734.374390,817.129639 738.667175,817.063660 742.953430,816.126587 
	C778.910278,808.264771 806.017639,787.950867 826.116821,756.636230 
M290.534729,211.314087 
	C274.760071,213.239868 260.224884,218.556915 246.707001,226.913574 
	C218.395569,244.415482 199.392120,268.697266 191.257202,301.298096 
	C187.094757,317.979187 196.350174,328.482483 214.798874,325.433716 
	C233.092957,322.410431 249.864105,316.043976 264.565430,304.884216 
	C287.687439,287.332336 304.763611,265.506195 309.269470,235.936935 
	C311.281494,222.733322 306.394806,211.455276 290.534729,211.314087 
M474.929932,377.620483 
	C462.757050,375.025543 450.410553,374.293610 438.225372,376.591766 
	C392.774017,385.164062 355.582947,425.668854 361.356171,475.349213 
	C362.175995,482.403870 363.767090,489.281281 367.467163,495.672638 
	C368.501587,495.257416 369.186676,495.133972 369.684082,494.760498 
	C381.184357,486.124908 394.160309,479.978027 406.563171,472.867279 
	C425.357635,462.092102 442.432739,449.364990 455.134460,431.401154 
	C466.373352,415.506256 475.099915,397.979797 487.055237,382.559448 
	C487.194763,382.379486 487.002228,381.942078 486.926025,381.298126 
	C483.501709,379.523224 479.671753,378.538971 474.929932,377.620483 
M541.512329,386.040009 
	C544.934692,391.754578 548.292053,397.509277 551.790833,403.176697 
	C566.207275,426.528900 582.201965,448.417816 604.606445,465.102325 
	C619.172241,475.949402 635.320068,483.699921 651.372009,491.763885 
	C657.120422,494.651703 657.804016,494.371246 659.802551,488.227570 
	C669.835022,457.387177 662.460632,430.009918 641.191223,406.799286 
	C619.706604,383.353821 592.559570,372.468170 560.331055,376.330414 
	C553.263245,377.177429 546.402344,378.925690 539.819214,380.757568 
	C539.288818,383.013275 540.464050,384.129608 541.512329,386.040009 
z"/>
</svg>