<svg width="196" height="331" viewBox="0 0 196 331" fill="none" xmlns="http://www.w3.org/2000/svg">
<path d="M98.7589 1.19426C97.7311 1.73838 95.3128 2.52434 93.3177 2.94754C91.3226 3.37075 86.9696 5.12403 83.6444 6.81686C80.3192 8.57014 76.5708 10.263 75.2407 10.6862C73.9711 11.1094 71.4923 12.5604 69.7995 14.0114C68.1067 15.4624 66.172 16.7924 65.507 16.9738C64.3583 17.2761 64.3583 17.3366 65.3256 18.1225C66.293 18.848 66.6557 18.7875 68.3485 17.8202C69.4368 17.1552 73.1852 16.0669 76.6917 15.3414C82.0121 14.2532 85.5791 14.0114 98.4566 13.83C107.223 13.7091 114.659 13.8904 115.687 14.2532C116.654 14.5555 120.101 15.0996 123.244 15.4019C126.388 15.7042 130.983 16.1879 133.401 16.4297C136.243 16.6715 137.754 17.0947 137.754 17.5784C137.754 18.183 135.276 18.3643 127.295 18.3039C121.612 18.3039 108.734 18.5457 98.7589 18.9085C88.7833 19.2108 78.2636 19.513 75.3012 19.513C72.2178 19.5735 70.0414 19.8153 70.0414 20.1781C70.0414 20.4804 73.0038 23.7451 76.6917 27.433C80.8633 31.6047 84.3095 34.5066 85.8814 35.1717C87.3324 35.8367 89.5693 36.5018 90.8994 36.7436C92.2295 36.9854 94.6478 37.9527 96.3406 38.9201C97.973 39.8269 101.903 41.4593 104.926 42.4871C110.306 44.3008 110.79 44.3613 115.204 43.7567C117.803 43.394 122.338 42.5476 125.36 41.8221C128.323 41.157 134.248 39.3433 138.48 37.8923C142.772 36.5018 148.879 33.9625 152.083 32.3301C155.348 30.6978 159.64 28.0376 161.635 26.4053C165.081 23.5637 165.263 23.3219 165.081 20.9036C165.021 19.2712 164.356 17.5784 163.268 16.1274C162.24 14.7369 160.366 13.3463 158.008 12.2581C156.013 11.4117 151.902 10.0211 148.939 9.29564C145.916 8.57014 141.986 7.42144 140.173 6.7564C138.359 6.09136 135.82 5.06358 134.55 4.39854C133.341 3.79396 129.653 2.64525 126.388 1.91976C121.854 0.891971 118.226 0.529223 110.548 0.408306C102.326 0.28739 100.27 0.408307 98.7589 1.19426Z" fill="#495E57"/>
<path d="M86.3651 14.1323C82.8585 14.3741 77.8405 15.0391 75.1803 15.5833C72.5202 16.1274 69.4973 17.0947 68.5299 17.6993C66.7767 18.7875 66.6557 18.7875 64.2979 17.5784L61.8796 16.3692C53.4154 19.0294 50.1507 20.1781 49.1834 20.6617C48.1556 21.1454 46.1605 22.6568 44.649 24.0474C43.1376 25.4379 41.3238 26.9494 40.5983 27.433C39.8728 27.9167 39.0264 29.1259 38.6032 30.1536C38.2405 31.121 37.1522 33.1765 36.1849 34.688C34.7339 37.0459 34.4316 38.255 34.0689 43.4544C33.8875 46.7796 33.2829 51.8581 32.7992 54.7601C32.2551 58.2062 31.4087 60.8663 30.5018 62.3173C29.6554 63.5869 28.6881 65.8239 28.3253 67.3353C27.9021 68.8468 26.693 71.8092 25.6047 73.9857C24.5769 76.1622 22.7632 80.6361 21.675 83.9613C20.5867 87.2865 19.0148 91.3372 18.2289 93.03C17.3824 94.6624 15.871 96.9598 14.9641 97.9876C13.9968 99.0758 12.6667 101.01 12.0621 102.22C11.3971 103.489 10.3088 106.814 9.58335 109.656C8.91831 112.497 7.52778 116.065 6.49999 117.636C5.53267 119.269 4.56534 121.566 4.38396 122.775C4.14213 124.045 3.35618 126.282 2.63068 127.793C1.48198 130.091 1.3006 130.937 1.72381 133.235C2.08656 134.988 1.90518 138.313 1.36106 142.606C0.877397 146.233 0.514648 150.284 0.514648 151.493C0.514648 152.763 0.937855 155.362 1.42152 157.236C1.96564 159.352 2.32839 163.04 2.26793 166.487C2.20747 169.63 2.38885 175.072 2.63068 178.578C2.87251 182.931 3.47709 186.075 4.44442 188.554C5.23038 190.549 6.1977 194.237 6.56045 196.716C6.98366 199.194 7.83007 202.338 8.37419 203.668C8.97877 204.998 10.0066 208.807 10.7321 212.132C11.4576 215.458 12.3644 219.145 12.7272 220.294C13.0899 221.443 13.9968 223.196 14.7223 224.224C15.5082 225.191 16.6569 227.247 17.322 228.758C17.9266 230.27 19.3776 232.567 20.5263 233.897C21.675 235.288 23.9724 238.25 25.6652 240.548C27.358 242.905 29.1718 245.928 29.7159 247.319C30.3205 248.77 32.1342 251.732 33.827 253.969C35.5198 256.267 37.8173 258.745 38.966 259.592C40.1147 260.438 41.9889 262.554 43.1376 264.247C44.2863 266 45.4954 267.451 45.8582 267.451C46.1605 267.451 48.5788 269.991 51.118 273.074C53.7177 276.157 56.8011 279.483 57.9498 280.51C59.0985 281.538 61.0331 282.989 62.1818 283.775C63.3305 284.561 66.8976 287.644 70.0414 290.667C73.427 293.932 77.2964 296.955 79.4124 298.043C81.4075 299.131 86.9696 301.429 91.8063 303.303C96.6429 305.117 102.87 307.112 105.712 307.716C109.218 308.442 111.697 309.409 113.571 310.679C115.083 311.707 117.38 312.795 118.71 313.037C120.04 313.279 122.64 314.427 124.454 315.576C126.267 316.664 128.444 318.538 129.29 319.748C130.137 320.896 131.588 322.105 132.615 322.468C133.583 322.771 136.485 324.705 138.964 326.761L143.498 330.449C151.478 329.784 154.32 329.421 154.985 329.119C155.71 328.877 156.859 327.063 157.887 324.524C159.398 320.836 159.519 320.05 158.975 317.753C158.491 315.999 158.491 314.125 158.915 311.707C159.277 309.833 160.124 306.326 160.789 304.029C161.514 301.671 162.542 298.829 163.147 297.68C163.751 296.532 164.961 294.899 165.867 294.053C166.895 293.025 167.923 290.849 168.951 287.403C169.797 284.561 170.946 281.175 171.49 279.845C172.095 278.515 173.485 275.976 174.694 274.102C175.903 272.288 177.113 269.567 177.354 268.056C177.596 266.545 178.745 263.159 179.833 260.499C180.921 257.839 182.493 252.942 183.34 249.616C184.186 246.291 185.698 241.515 186.725 239.036C187.814 236.557 188.781 233.837 188.962 232.99C189.083 232.144 189.748 228.879 190.353 225.735C190.957 222.592 191.743 217.392 192.167 214.248C192.529 211.105 193.376 206.752 194.101 204.575C195.129 201.189 195.25 200.283 194.645 197.925C194.041 195.688 194.101 194.72 194.887 192.483C195.673 190.247 195.794 187.465 195.613 176.764C195.371 165.338 195.19 163.343 194.041 160.259C193.134 157.72 192.892 156.148 193.134 154.214C193.436 152.339 193.073 150.042 191.864 145.628C190.957 142.303 188.902 136.197 187.33 132.025C185.758 127.854 184.247 123.259 184.005 121.748C183.702 120.115 182.372 117.213 180.559 114.493C178.987 112.014 177.354 108.87 176.992 107.54C176.629 106.21 175.299 103.731 174.029 102.099C172.82 100.406 170.704 97.2016 169.434 94.9042C168.104 92.6068 166.109 90.0071 164.96 89.1002C163.812 88.1934 161.333 85.3518 159.459 82.6917C157.585 80.092 155.287 77.3714 154.32 76.7668C153.353 76.1017 150.39 73.5021 147.73 70.9628C145.07 68.4236 141.261 65.0984 139.266 63.5869C137.271 62.0755 134.187 60.1408 132.434 59.234C130.741 58.3875 128.807 56.9365 128.142 55.9692C127.477 54.9414 125.723 53.8532 123.486 53.0068C121.491 52.2208 118.045 50.1048 115.687 48.1701C112.241 45.3891 110.246 44.3008 105.107 42.5475C101.6 41.3384 97.5498 39.6456 96.0383 38.7991C94.5269 37.8923 92.2295 36.9854 90.8994 36.7436C89.5693 36.5018 87.3324 35.8367 85.8814 35.1717C84.3095 34.5066 80.8633 31.6047 76.6917 27.433C73.0038 23.7451 70.0414 20.4804 70.0414 20.1781C70.0414 19.8153 72.2178 19.5735 75.3012 19.513C78.2636 19.513 88.7833 19.2108 98.7589 18.9085C108.734 18.5457 121.612 18.3039 127.295 18.3039C135.82 18.3643 137.754 18.183 137.633 17.5179C137.513 16.9738 136.122 16.611 133.22 16.3088C130.923 16.1274 126.388 15.7042 123.244 15.4623C120.101 15.1601 117.078 14.7368 116.594 14.4346C116.11 14.1323 110.488 13.8904 104.2 13.83C97.8521 13.7695 89.8716 13.8904 86.3651 14.1323Z" fill="#F4CE14"/>
<path fill-rule="evenodd" clip-rule="evenodd" d="M61.3959 22.0523C61.8191 21.9918 63.0887 22.415 64.1165 22.9591C65.2047 23.5033 68.409 26.1634 71.2505 28.8236C74.0921 31.5442 77.2963 34.8089 78.445 36.139C79.5937 37.5295 82.133 39.6456 84.0676 40.8547C86.0023 42.1243 87.5742 43.394 87.5742 43.7567C87.5742 44.059 91.0808 47.8679 95.4337 52.2208C99.7263 56.5134 103.293 60.3222 103.293 60.685C103.293 60.9872 104.382 63.466 105.712 66.1262C107.404 69.5118 108.311 72.2929 108.735 75.3158C109.037 77.7341 109.581 80.6966 109.944 81.8453C110.246 82.994 110.548 85.0495 110.548 86.3796C110.548 87.7097 110.851 89.7653 111.153 90.914C111.516 92.0627 111.878 97.6248 111.999 103.308C112.181 110.623 112.543 114.311 113.208 116.125C113.994 118.241 114.055 118.966 113.39 120.236C113.027 121.083 111.999 121.929 111.153 122.05C110.306 122.231 108.553 121.989 107.223 121.566C105.893 121.083 103.596 119.934 102.084 119.027C100.573 118.12 97.973 116.971 96.3406 116.488C94.6478 116.004 92.1085 114.734 90.5971 113.646C89.0856 112.618 84.1885 110.14 79.7147 108.205C75.2408 106.21 70.1623 103.792 68.5299 102.703C66.8371 101.676 63.7537 99.9827 61.5772 98.9549C59.038 97.7457 56.6801 96.0529 54.9873 94.1787C53.5363 92.5463 50.5739 88.5561 48.5183 85.2914C45.0117 79.9711 44.5281 78.8828 43.5003 73.5021C42.8353 70.2978 42.1702 66.5494 41.9284 65.2193C41.6261 63.5265 42.1098 60.0804 43.4398 53.7323C44.5281 48.7143 45.9791 43.1521 46.6441 41.3384C47.3091 39.5246 48.5788 37.0459 49.4856 35.8972C50.3925 34.7485 51.8435 32.1488 52.7504 30.1537C53.6572 28.1585 54.9873 25.8611 55.6524 25.0147C56.3174 24.1683 57.7079 23.201 58.7357 22.7778C59.824 22.415 61.0331 22.0523 61.3959 22.0523Z" fill="#495E57"/>
<path d="M61.5773 37.4086C61.5773 37.7109 62.1214 40.0083 62.7864 42.3661C63.4515 44.7845 65.2047 49.4397 66.6557 52.644C68.1067 55.9088 70.8273 61.8941 72.7015 65.9448C74.5757 70.0559 78.1428 76.7063 80.7425 80.757C83.2817 84.8682 86.1837 89.2816 87.2115 90.6117C88.1788 91.9417 89.9925 94.1182 91.1412 95.4483C92.2899 96.7784 94.406 98.7735 95.857 99.8013C97.308 100.89 98.5776 101.675 98.759 101.494C98.9403 101.313 98.2148 99.6199 97.1266 97.6853C96.0988 95.8111 94.5269 93.1509 93.62 91.8208C92.7736 90.4907 91.5645 88.012 90.9599 86.3796C90.3553 84.6868 87.6951 79.7897 85.1559 75.4972C82.5562 71.1442 79.6542 65.8843 78.7473 63.7078C77.8405 61.5313 75.4222 57.1784 73.3666 54.0345C71.3715 50.8907 68.9531 46.7796 68.1067 44.9658C67.1999 43.1521 65.3861 40.5524 63.9956 39.2223C62.6655 37.8923 61.5773 37.0458 61.5773 37.4086Z" fill="#F4CE14"/>
</svg>
