<svg version="1.1" id="Layer_1" xmlns="http://www.w3.org/2000/svg" xmlns:xlink="http://www.w3.org/1999/xlink" x="0px" y="0px"
	 width="100%" viewBox="0 0 1024 1024" enable-background="new 0 0 1024 1024" xml:space="preserve">
<path fill="#000000" opacity="1.000000" stroke="none" 
	d="
M630.872070,644.872437 
	C657.629150,655.319946 675.960388,673.376709 684.448914,700.727661 
	C685.627869,704.526611 688.042542,704.826782 691.275146,704.823608 
	C724.266357,704.791321 757.257629,704.873230 790.248779,704.823914 
	C795.436523,704.816162 799.363708,706.324341 801.215820,711.561401 
	C804.127808,719.795166 799.151184,726.922363 789.947998,727.109802 
	C778.288757,727.347229 766.622009,727.231140 754.958496,727.234985 
	C745.193176,727.238159 747.360962,727.110107 744.587769,734.582642 
	C730.962646,771.295898 705.450684,794.938965 667.321655,804.556763 
	C661.507385,806.023438 655.487000,806.210693 649.473816,806.207825 
	C560.164246,806.164917 470.854004,806.363037 381.545441,806.052979 
	C338.480286,805.903442 308.227966,784.591919 288.642059,747.072693 
	C286.110870,742.223877 284.153870,737.034241 282.368408,731.851807 
	C281.213226,728.498718 279.551392,727.153625 275.887299,727.207886 
	C262.727203,727.402832 249.561951,727.296875 236.398972,727.233582 
	C228.249527,727.194397 224.664810,723.460754 224.650055,715.199951 
	C224.637512,708.175049 228.233246,704.817566 236.300873,704.803040 
	C274.124268,704.734741 311.948242,704.662842 349.770813,704.842041 
	C354.801910,704.865906 357.087891,703.483643 358.274719,698.362793 
	C363.425476,676.138977 376.937134,661.406616 399.246063,655.839844 
	C428.799072,648.465454 459.908417,667.765137 467.393372,697.587708 
	C469.214478,704.843567 469.214508,704.850708 476.862793,704.847961 
	C488.693024,704.843811 500.529449,704.602356 512.350464,704.927673 
	C517.195374,705.061035 519.436340,703.488403 520.782471,698.782043 
	C528.347534,672.331909 545.665955,654.718323 571.251526,645.453674 
	C590.768860,638.386292 610.668091,638.029297 630.872070,644.872437 
M316.096954,748.410767 
	C322.157043,757.347290 329.800720,764.692810 338.604340,770.887207 
	C353.216736,781.168518 369.693665,784.704468 387.260651,784.694702 
	C472.914246,784.647339 558.572144,785.173279 644.219360,784.434509 
	C678.622437,784.137817 704.111267,767.505676 718.897278,735.807129 
	C720.053467,733.328613 721.467102,730.793030 721.071411,727.819214 
	C719.169800,726.861938 717.311462,727.200745 715.509399,727.200562 
	C612.191956,727.190430 508.874512,727.188538 405.557068,727.193604 
	C374.395203,727.195129 343.233337,727.216858 312.071472,727.234680 
	C305.859253,727.238220 305.360779,727.901733 307.864777,733.322510 
	C310.169434,738.311707 312.525909,743.286194 316.096954,748.410767 
M637.499939,704.824097 
	C644.922302,704.824097 652.344727,704.824097 659.791565,704.824097 
	C659.522522,700.126221 659.757080,699.975647 655.392700,693.178833 
	C641.902710,672.169617 622.384521,662.040039 597.613220,663.498535 
	C573.636108,664.910156 556.651306,677.746765 545.640442,698.744324 
	C543.095032,703.598389 544.020874,704.788269 549.578735,704.791199 
	C578.552490,704.806152 607.526245,704.812073 637.499939,704.824097 
M399.013550,680.441650 
	C391.294830,684.042175 385.672058,689.792114 382.340637,697.557861 
	C379.892303,703.265076 381.063293,704.804077 387.045593,704.806580 
	C405.517456,704.814453 423.989288,704.811462 442.461151,704.805115 
	C443.600891,704.804749 444.807037,705.107483 445.791260,704.209412 
	C445.350372,686.875854 421.128265,670.440186 399.013550,680.441650 
z"/>
<path fill="#000000" opacity="1.000000" stroke="none" 
	d="
M663.224365,505.985046 
	C655.113770,533.762512 641.664795,558.022339 620.888611,577.757385 
	C595.206543,602.152527 565.267151,618.634949 529.587402,622.039856 
	C473.056183,627.434509 426.469116,607.672546 389.960815,564.226807 
	C371.387817,542.124573 360.151764,516.506104 355.983246,488.129211 
	C351.418091,457.052521 355.884033,427.009399 370.348480,398.893738 
	C395.858521,349.308044 436.231842,319.168549 491.511261,312.242523 
	C547.107727,305.276825 594.036072,324.171234 630.964111,366.730560 
	C651.192932,390.044128 662.434998,417.520325 667.046692,447.722229 
	C670.016479,467.171326 668.244324,486.534119 663.224365,505.985046 
M529.759277,335.808228 
	C514.963318,333.616394 500.159851,333.785919 485.572540,336.952576 
	C454.623962,343.671051 428.479584,358.655792 408.442047,383.498566 
	C384.561340,413.106079 374.272308,446.792297 379.659821,484.629364 
	C383.413452,510.991425 394.272461,534.292786 412.437012,553.990479 
	C450.044159,594.771912 496.231598,606.615906 549.227966,593.612915 
	C569.859070,588.550964 587.143250,576.823669 602.459839,562.241760 
	C640.775391,525.764282 657.115295,466.181854 633.768616,415.172974 
	C613.394958,370.659576 578.963379,344.211182 529.759277,335.808228 
z"/>
<path fill="#000000" opacity="1.000000" stroke="none" 
	d="
M274.805237,455.581390 
	C287.716888,453.774048 299.439758,456.025757 310.238281,462.478760 
	C316.813110,466.407684 316.888458,470.076111 310.863556,474.636536 
	C294.809998,486.787933 269.067566,486.097748 253.669525,473.103058 
	C248.566864,468.796875 248.657547,466.639069 254.388901,462.923889 
	C260.472107,458.980682 267.120148,456.454224 274.805237,455.581390 
z"/>
<path fill="#000000" opacity="1.000000" stroke="none" 
	d="
M758.912720,459.823669 
	C763.101135,461.608063 766.927917,463.221802 770.181030,465.930115 
	C774.556091,469.572479 774.670044,471.915283 770.018127,475.398529 
	C756.323853,485.652435 741.213928,487.323944 725.112915,482.412415 
	C720.124146,480.890625 715.488281,478.667084 711.556824,475.197876 
	C707.612244,471.717163 707.623596,468.980194 711.974243,465.908875 
	C726.374207,455.742981 742.034363,454.382294 758.912720,459.823669 
z"/>
<path fill="#000000" opacity="1.000000" stroke="none" 
	d="
M496.975464,234.395660 
	C498.671906,228.508377 501.073730,223.407806 504.663910,218.960770 
	C508.182587,214.602280 511.624207,214.454163 514.859497,218.860962 
	C524.713989,232.283875 529.567749,257.503937 515.444885,274.128693 
	C511.690338,278.548340 508.582397,278.762665 504.910278,273.979004 
	C496.904541,263.549927 494.482391,251.601791 496.131226,238.709671 
	C496.299225,237.396194 496.618683,236.102081 496.975464,234.395660 
z"/>
<path fill="#000000" opacity="1.000000" stroke="none" 
	d="
M713.051025,583.875671 
	C721.985718,590.935059 727.834412,599.588501 730.039795,610.478149 
	C731.508057,617.727905 729.515930,619.714172 722.246094,618.618347 
	C702.645264,615.664001 686.565002,600.573364 683.413391,582.175781 
	C682.557678,577.180420 683.632141,575.983765 688.677551,575.655823 
	C697.820374,575.061646 705.574341,578.464600 713.051025,583.875671 
z"/>
<path fill="#000000" opacity="1.000000" stroke="none" 
	d="
M333.251465,574.745605 
	C343.031616,574.600098 345.138977,577.112061 342.009216,586.113892 
	C335.531555,604.744873 322.124512,615.476562 302.825348,618.899902 
	C298.297119,619.703125 296.717743,617.741455 297.296661,612.685364 
	C299.529785,593.181763 312.935181,578.869202 333.251465,574.745605 
z"/>
<path fill="#000000" opacity="1.000000" stroke="none" 
	d="
M330.320740,299.543274 
	C340.655060,306.887756 347.654297,316.075653 349.466217,328.539856 
	C350.447449,335.289612 347.511597,337.993896 340.939575,336.867615 
	C323.553772,333.888092 306.253448,316.195251 303.487732,298.859039 
	C302.814850,294.641327 304.351837,292.871155 308.351715,292.738220 
	C316.321533,292.473328 323.300415,295.471863 330.320740,299.543274 
z"/>
<path fill="#000000" opacity="1.000000" stroke="none" 
	d="
M704.879089,306.520721 
	C699.039062,321.274719 689.321960,331.591095 674.415405,336.430847 
	C665.834106,339.216888 663.150391,337.209930 663.734070,328.373901 
	C665.030029,308.757355 682.630554,295.176331 697.149902,292.840637 
	C705.407166,291.512329 707.719482,294.441895 705.928650,302.773376 
	C705.684753,303.908417 705.330750,305.019775 704.879089,306.520721 
z"/>
<path fill="#000000" opacity="1.000000" stroke="none" 
	d="
M516.284180,686.135010 
	C510.895538,695.723511 506.538849,695.371155 501.440674,685.167053 
	C495.316498,672.909424 496.190033,660.398926 503.215729,648.530945 
	C504.888733,645.704895 506.727722,642.397278 510.576477,642.582825 
	C514.566650,642.775208 516.360657,646.210754 517.906616,649.337769 
	C524.031555,661.726379 523.997803,673.931824 516.284180,686.135010 
z"/>
<path fill="#000000" opacity="1.000000" stroke="none" 
	d="
M298.489807,525.836731 
	C301.672852,521.868286 305.286804,521.674255 308.818787,524.194336 
	C311.569794,526.157166 312.905823,529.151489 311.187592,532.512695 
	C309.426636,535.957458 306.232025,536.780151 302.690491,536.105530 
	C298.563202,535.319458 297.179413,532.043945 298.489807,525.836731 
z"/>
<path fill="#000000" opacity="1.000000" stroke="none" 
	d="
M717.264771,405.861755 
	C715.394287,410.846497 712.503967,412.440430 708.045410,411.211029 
	C704.282104,410.173370 703.372437,407.295807 703.776550,403.864441 
	C704.218140,400.115814 706.754456,398.352875 710.262268,398.331482 
	C714.837219,398.303558 717.247498,400.803131 717.264771,405.861755 
z"/>
<path fill="#000000" opacity="1.000000" stroke="none" 
	d="
M403.453247,280.436462 
	C404.805939,275.636108 407.824249,274.412323 411.959564,275.720947 
	C415.651581,276.889313 417.231598,279.789001 416.672058,283.421753 
	C416.127686,286.955994 413.449677,288.805603 410.001312,289.006226 
	C406.202454,289.227264 403.875885,286.164764 403.453247,280.436462 
z"/>
<path fill="#000000" opacity="1.000000" stroke="none" 
	d="
M718.122559,526.051270 
	C720.255249,530.372864 718.685120,533.256104 715.128906,534.947998 
	C711.673401,536.591980 708.262573,536.087585 705.973389,532.647461 
	C703.866821,529.481934 704.957520,526.601501 707.476440,524.249634 
	C710.284729,521.627502 714.126831,522.242554 718.122559,526.051270 
z"/>
<path fill="#000000" opacity="1.000000" stroke="none" 
	d="
M311.213989,398.197083 
	C311.232941,403.045349 308.827393,405.468750 304.571320,405.543427 
	C300.795166,405.609772 298.291626,403.363983 297.874542,399.569489 
	C297.489532,396.066589 299.106567,393.337799 302.637146,392.433044 
	C307.184692,391.267670 309.825897,393.617218 311.213989,398.197083 
z"/>
<path fill="#000000" opacity="1.000000" stroke="none" 
	d="
M604.706787,278.291779 
	C607.667603,277.262360 610.043335,277.868805 611.936035,279.680878 
	C614.641663,282.271179 615.317505,285.430939 612.991150,288.553345 
	C610.716614,291.606171 607.468567,292.290283 604.235535,290.297119 
	C601.121704,288.377411 599.860046,285.465393 601.505493,281.802185 
	C602.132385,280.406525 603.031250,279.272369 604.706787,278.291779 
z"/>
<path fill="#000000" opacity="1.000000" stroke="none" 
	d="
M381.820770,599.926758 
	C385.436462,601.009888 387.281189,603.156006 387.013184,606.614868 
	C386.806091,609.287842 385.319092,611.061584 382.356354,611.803284 
	C385.111115,604.894897 384.671448,604.019836 377.249420,601.368591 
	C378.179199,599.365906 379.951935,599.982727 381.820770,599.926758 
z"/>
</svg>